<?xml version="1.0" encoding="UTF-8"?><svg xmlns="http://www.w3.org/2000/svg" viewBox="0 0 255.31 223.51"><defs><style>.cls-1{fill:#009a6f;stroke:#009a6f;}.cls-1,.cls-2,.cls-3,.cls-4,.cls-5,.cls-6{stroke-width:.21px;}.cls-2,.cls-3{fill:#f15d2a;}.cls-2,.cls-5,.cls-6{stroke:#231f20;}.cls-3{stroke:#f15d2a;}.cls-4{fill:#fff;stroke:#fff;}.cls-5{fill:#febe10;}.cls-6{fill:#231f20;}</style></defs><path class="cls-3" d="M135.32,4.59l118.73,205.42c.79,1.37,1.15,2.81,1.15,4.46,0,4.9-4.03,8.93-8.93,8.93H9.04c-4.9,0-8.93-4.03-8.93-8.93,0-1.66,.36-3.17,1.15-4.46L119.99,4.59c3.31-5.98,12.02-5.98,15.48,0h-.14Z"/><polygon class="cls-4" points="215.32 198.2 40 198.2 127.62 46.49 215.32 198.2"/><path class="cls-6" d="M146.56,134.77c0-10.37-8.5-18.86-18.94-18.86s-18.72,8.5-18.72,18.86,8.35,18.79,18.72,18.79,18.94-8.35,18.94-18.79Z"/><path class="cls-6" d="M146.56,172.42c0-10.3-8.5-18.86-18.94-18.86s-18.72,8.57-18.72,18.86,8.35,18.86,18.72,18.86,18.94-8.42,18.94-18.86Z"/><path class="cls-6" d="M146.56,97.11c0-10.37-8.5-18.86-18.94-18.86s-18.72,8.5-18.72,18.86,8.35,18.79,18.72,18.79,18.94-8.35,18.94-18.79Z"/><path class="cls-2" d="M142.96,97.11c0-8.42-6.84-15.26-15.34-15.26s-15.26,6.84-15.26,15.26,6.98,15.34,15.26,15.34,15.34-6.84,15.34-15.34Z"/><path class="cls-5" d="M142.96,134.77c0-8.42-6.84-15.26-15.34-15.26s-15.26,6.84-15.26,15.26,6.98,15.19,15.26,15.19,15.34-6.84,15.34-15.19Z"/><path class="cls-1" d="M142.96,172.42c0-8.35-6.84-15.19-15.34-15.19s-15.26,6.84-15.26,15.19,6.98,15.34,15.26,15.34,15.34-6.91,15.34-15.34Z"/></svg>