<?xml version="1.0" encoding="UTF-8" standalone="no"?>
<svg
   xmlns:dc="http://purl.org/dc/elements/1.1/"
   xmlns:cc="http://creativecommons.org/ns#"
   xmlns:rdf="http://www.w3.org/1999/02/22-rdf-syntax-ns#"
   xmlns:svg="http://www.w3.org/2000/svg"
   xmlns="http://www.w3.org/2000/svg"
   viewBox="0 0 302.97333 302.97333"
   height="302.97333"
   width="302.97333"
   xml:space="preserve"
   id="svg2"
   version="1.1"><metadata
     id="metadata8"><rdf:RDF><cc:Work
         rdf:about=""><dc:format>image/svg+xml</dc:format><dc:type
           rdf:resource="http://purl.org/dc/dcmitype/StillImage" /></cc:Work></rdf:RDF></metadata><defs
     id="defs6" /><g
     transform="matrix(1.3333333,0,0,-1.3333333,0,302.97333)"
     id="g10"><g
       transform="scale(0.1)"
       id="g12"><path
         id="path14"
         style="fill:#f14824;fill-opacity:1;fill-rule:nonzero;stroke:none"
         d="m 2271.23,1137.24 c 0,622.8 -511.2,1133.99 -1134,1133.99 C 512.27,2271.23 1.07422,1760.04 1.07422,1137.24 1.07422,512.281 512.27,1.07031 1137.23,1.07031 c 622.8,0 1134,511.21069 1134,1136.16969" /><path
         id="path16"
         style="fill:none;stroke:#f14824;stroke-width:2.1500001;stroke-linecap:butt;stroke-linejoin:miter;stroke-miterlimit:4;stroke-dasharray:none;stroke-opacity:1"
         d="m 2271.23,1137.24 c 0,622.8 -511.2,1133.99 -1134,1133.99 C 512.27,2271.23 1.07422,1760.04 1.07422,1137.24 1.07422,512.281 512.27,1.07031 1137.23,1.07031 c 622.8,0 1134,511.21069 1134,1136.16969 z" /><path
         id="path18"
         style="fill:#ffffff;fill-opacity:1;fill-rule:nonzero;stroke:none"
         d="M 111.953,964.43 V 1305 H 2157.47 V 964.43 H 111.953" /><path
         id="path20"
         style="fill:none;stroke:#ffffff;stroke-width:2.1500001;stroke-linecap:butt;stroke-linejoin:miter;stroke-miterlimit:4;stroke-dasharray:none;stroke-opacity:1"
         d="M 111.953,964.43 V 1305 H 2157.47 V 964.43 Z" /></g></g></svg>