<?xml version="1.0" encoding="UTF-8"?><svg xmlns="http://www.w3.org/2000/svg" viewBox="0 0 595.27 521.2"><defs><style>.cls-1,.cls-2,.cls-3,.cls-4,.cls-5,.cls-6,.cls-7,.cls-8,.cls-9,.cls-10,.cls-11,.cls-12{stroke-linecap:round;stroke-linejoin:round;}.cls-1,.cls-2,.cls-3,.cls-4,.cls-5,.cls-6,.cls-7,.cls-8,.cls-9,.cls-11{stroke:#000;}.cls-1,.cls-10,.cls-11,.cls-12{stroke-width:.71px;}.cls-2{stroke-width:.23px;}.cls-3{stroke-width:.21px;}.cls-4{stroke-width:.11px;}.cls-4,.cls-5,.cls-8,.cls-10,.cls-11{fill:#fff;}.cls-5{stroke-width:.12px;}.cls-6{stroke-width:.69px;}.cls-7{stroke-width:.68px;}.cls-8{stroke-width:.1px;}.cls-9{stroke-width:.25px;}.cls-10{stroke:#fff;}.cls-12{fill:#f15d22;stroke:#f15d22;}</style></defs><path class="cls-12" d="M315.68,10.77l276.45,478.82c3.72,6.45,3.72,14.39,0,20.84-3.72,6.45-10.6,10.42-18.04,10.42H21.19c-7.44,0-14.32-3.97-18.04-10.42-3.72-6.45-3.72-14.39,0-20.84L279.59,10.77c3.72-6.45,10.6-10.42,18.04-10.42s14.32,3.97,18.04,10.42Z"/><polygon class="cls-10" points="93.37 458.34 297.64 104.53 501.91 458.34 93.37 458.34"/><path class="cls-9" d="M297.64,418.89v12.32l1.65,5.44c4.68,2.5,10.31,2.5,14.99,0l1.65-5.44v-12.32h-18.28Z"/><path class="cls-9" d="M417.29,431.21v-12.32h-18.29v12.32l1.65,5.44c4.68,2.5,10.31,2.5,14.99,0l1.65-5.44Z"/><polygon class="cls-1" points="424.83 408.08 290.1 408.08 289.54 408.62 289.54 418.35 290.1 418.89 424.83 418.89 425.38 418.35 425.38 408.62 424.83 408.08"/><path class="cls-1" d="M416.38,370.36l-14.36-45.6c-14.7-2.7-29.6-4.21-44.55-4.51-14.95,.3-29.85,1.8-44.55,4.51l-14.36,45.6c-4.59,2.64-7.86,7.08-9.01,12.24v20.79l.55,.54h134.74l.55-.54v-20.79c-1.15-5.16-4.42-9.61-9.01-12.24Z"/><path class="cls-2" d="M257.12,378.77v11.09l1.48,4.89c4.22,2.25,9.28,2.25,13.49,0l1.48-4.89v-11.09h-16.46Z"/><path class="cls-7" d="M290.84,378.77c1.64-3.53,4.33-6.47,7.71-8.41l.41-1.32h-48.63l-.5,.48v8.76l.5,.48h40.51Z"/><path class="cls-1" d="M310.96,302.98c11.1,.16,22.19,.97,33.19,2.44l4.61,15.15c2.9-.15,5.79-.25,8.69-.31,.62,.01,1.24,.03,1.86,.04l-8.26-26.24c-13.23-2.43-26.64-3.79-40.1-4.06-13.45,.27-26.86,1.62-40.1,4.06l-12.92,41.04c-4.13,2.37-7.07,6.37-8.11,11.02v18.71l.5,.48h49.81l12.77-40.54c.55-.1,1.1-.2,1.64-.3-15.23-.61-30.44,1.71-44.8,6.82l8.01-25.88c11.01-1.47,22.09-2.28,33.19-2.44Z"/><path class="cls-3" d="M216.45,339.6v9.98l1.33,4.4c3.79,2.03,8.35,2.03,12.14,0l1.33-4.4v-9.98h-14.81Z"/><path class="cls-6" d="M252.85,339.6c1.38-1.83,3.11-3.36,5.09-4.5l1.34-4.25h-48.94l-.45,.43v7.88l.45,.43h42.51Z"/><path class="cls-1" d="M282.31,292.23c-18.26-3.18-37.03-1.58-54.49,4.63l7.21-23.29c9.91-1.32,19.88-2.06,29.87-2.2,9.99,.14,19.97,.87,29.87,2.2l5.14,16.89c3.15-.2,6.31-.35,9.47-.43l-8.4-26.68c-11.91-2.19-23.98-3.41-36.09-3.65-12.11,.24-24.18,1.46-36.09,3.65l-11.63,36.93c-3.72,2.14-6.36,5.73-7.3,9.92v16.84l.45,.43h50l10.52-33.42c3.8-.7,7.61-1.31,11.44-1.83Z"/><path class="cls-11" d="M282.31,292.23c-18.26-3.18-37.03-1.58-54.49,4.63l7.21-23.29c9.91-1.32,19.88-2.06,29.87-2.2,9.99,.14,19.97,.87,29.87,2.2l5.14,16.89c-5.89,.38-11.77,.97-17.62,1.76Z"/><path class="cls-8" d="M227.02,319.33v-13.06c-2.23-1.19-4.91-1.19-7.15,0v13.06c2.23,1.19,4.91,1.19,7.15,0Z"/><path class="cls-11" d="M348.77,320.57c-11.47,.59-22.9,1.89-34.21,3.9-15.23-.61-30.44,1.71-44.8,6.82l8.01-25.88c11.01-1.47,22.09-2.28,33.19-2.44,11.1,.16,22.19,.97,33.19,2.44l4.61,15.15Z"/><path class="cls-4" d="M268.86,356.25v-14.51c-2.48-1.32-5.46-1.32-7.94,0v14.51c2.48,1.32,5.46,1.32,7.94,0Z"/><path class="cls-11" d="M403.4,367.13c-29.48-11.23-62-11.58-91.73-1l8.9-28.75c12.23-1.63,24.54-2.54,36.88-2.71,12.34,.17,24.65,1.08,36.88,2.71l9.06,29.75Z"/><path class="cls-5" d="M310.69,393.86v-16.12c-2.76-1.47-6.06-1.47-8.82,0v16.12c2.76,1.47,6.07,1.47,8.82,0Z"/><path class="cls-5" d="M404.24,393.86c2.76,1.47,6.07,1.47,8.82,0v-16.12c-2.76-1.47-6.07-1.47-8.82,0v16.12Z"/></svg>