<?xml version="1.0" encoding="UTF-8"?><svg xmlns="http://www.w3.org/2000/svg" viewBox="0 0 595.27 521.2"><defs><style>.cls-1{fill:#f2eb46;stroke:#f2eb46;}.cls-1,.cls-2,.cls-3{stroke-linecap:round;stroke-linejoin:round;stroke-width:.71px;}.cls-2{fill:#231f20;stroke:#231f20;}.cls-3{fill:#f15d2a;stroke:#f15d2a;}</style></defs><path class="cls-3" d="M315.68,10.77l276.45,478.82c3.72,6.45,3.72,14.39,0,20.84-3.72,6.45-10.6,10.42-18.04,10.42H21.19c-7.44,0-14.32-3.97-18.04-10.42-3.72-6.45-3.72-14.39,0-20.84L279.59,10.77c3.72-6.45,10.6-10.42,18.04-10.42s14.32,3.97,18.04,10.42Z"/><polygon class="cls-1" points="93.37 458.34 297.64 104.53 501.91 458.34 93.37 458.34"/><path class="cls-2" d="M480.17,445.9h-158.71l12.66-17.63h13.46l7.2-10.06-18.87-13.75c-1.52-1.11-1.87-3.23-.77-4.76l5.6-7.86-38.7-28.16c-3.17,1.95-7.21,1.79-10.22-.4-3.01-2.19-4.41-5.98-3.53-9.6l-20.6-14.94,23.22,35.78c1.37,2.1,2.05,4.58,1.96,7.08l.06,51.73c.12,4.41-2.16,8.54-5.96,10.78-3.8,2.24-8.51,2.24-12.31,0-3.8-2.24-6.08-6.37-5.96-10.78v-45.9l-22.33-34.41-.3,35.01-29.23,51.02c-2.04,3.95-6.07,6.46-10.52,6.55-4.44,.09-8.58-2.26-10.77-6.13-2.19-3.86-2.09-8.62,.27-12.39l24.05-41.08v-59.18c0-4.08,1.32-8.04,3.75-11.31l4.41-5.66-10.03-7.29c-1.57,2.9-4.65,4.67-7.95,4.58-3.3-.09-6.27-2.03-7.68-5.02-1.41-2.99-1.02-6.51,1-9.12l26.13-33.34c2.47-3.15,6.3-4.92,10.3-4.76h43.69c12.69,1.15,22.51,11.61,22.87,24.35v75.07l40.3,29.29,5.66-7.68c.64-.87,1.64-1.41,2.73-1.47,1.08-.06,2.14,.37,2.87,1.17l25.24,18.34,4.41-5.95v-10.66l17.03-9.94h17.98l21.12,15.32,36.46,63.15Z"/><path class="cls-2" d="M329.61,232.84c0-12.78-10.36-23.14-23.14-23.14s-23.14,10.36-23.14,23.14,10.36,23.14,23.14,23.14,23.14-10.36,23.14-23.14Z"/><polygon class="cls-1" points="270.42 328.19 288.28 341.17 288.28 305.45 270.42 328.19"/><polygon class="cls-1" points="238.92 275.81 254.64 275.86 234.28 301.88 224.28 294.62 238.92 275.81"/></svg>